<mxfile host="app.diagrams.net" modified="2023-11-06T16:34:28.902Z" agent="Mozilla/5.0 (Windows NT 10.0; Win64; x64) AppleWebKit/537.36 (KHTML, like Gecko) Chrome/116.0.5845.931 YaBrowser/23.9.0.0 Safari/537.36" etag="iGAEqbGzGfH-iJsPimSI" version="21.6.9" type="device">
  <diagram name="Page-1" id="N9aqaw_oKfhQ12ShZOm0">
    <mxGraphModel dx="474" dy="786" grid="1" gridSize="10" guides="1" tooltips="1" connect="1" arrows="1" fold="1" page="1" pageScale="1" pageWidth="827" pageHeight="1169" math="0" shadow="0">
      <root>
        <mxCell id="0" />
        <mxCell id="1" parent="0" />
        <mxCell id="2fhtI5i99KWgJatTAvbM-1" value="Квалификация" style="swimlane;fontStyle=2;align=center;verticalAlign=top;childLayout=stackLayout;horizontal=1;startSize=26;horizontalStack=0;resizeParent=1;resizeLast=0;collapsible=1;marginBottom=0;rounded=0;shadow=0;strokeWidth=1;" vertex="1" parent="1">
          <mxGeometry x="750" y="200" width="160" height="220" as="geometry">
            <mxRectangle x="230" y="140" width="160" height="26" as="alternateBounds" />
          </mxGeometry>
        </mxCell>
        <mxCell id="2fhtI5i99KWgJatTAvbM-2" value="ID" style="text;align=left;verticalAlign=top;spacingLeft=4;spacingRight=4;overflow=hidden;rotatable=0;points=[[0,0.5],[1,0.5]];portConstraint=eastwest;" vertex="1" parent="2fhtI5i99KWgJatTAvbM-1">
          <mxGeometry y="26" width="160" height="26" as="geometry" />
        </mxCell>
        <mxCell id="2fhtI5i99KWgJatTAvbM-3" value="" style="line;html=1;strokeWidth=1;align=left;verticalAlign=middle;spacingTop=-1;spacingLeft=3;spacingRight=3;rotatable=0;labelPosition=right;points=[];portConstraint=eastwest;" vertex="1" parent="2fhtI5i99KWgJatTAvbM-1">
          <mxGeometry y="52" width="160" height="8" as="geometry" />
        </mxCell>
        <mxCell id="2fhtI5i99KWgJatTAvbM-4" value="Должность" style="text;align=left;verticalAlign=top;spacingLeft=4;spacingRight=4;overflow=hidden;rotatable=0;points=[[0,0.5],[1,0.5]];portConstraint=eastwest;" vertex="1" parent="2fhtI5i99KWgJatTAvbM-1">
          <mxGeometry y="60" width="160" height="26" as="geometry" />
        </mxCell>
        <mxCell id="2fhtI5i99KWgJatTAvbM-50" value="Опыт работы" style="text;align=left;verticalAlign=top;spacingLeft=4;spacingRight=4;overflow=hidden;rotatable=0;points=[[0,0.5],[1,0.5]];portConstraint=eastwest;" vertex="1" parent="2fhtI5i99KWgJatTAvbM-1">
          <mxGeometry y="86" width="160" height="26" as="geometry" />
        </mxCell>
        <mxCell id="2fhtI5i99KWgJatTAvbM-51" value="Сертификации" style="text;align=left;verticalAlign=top;spacingLeft=4;spacingRight=4;overflow=hidden;rotatable=0;points=[[0,0.5],[1,0.5]];portConstraint=eastwest;" vertex="1" parent="2fhtI5i99KWgJatTAvbM-1">
          <mxGeometry y="112" width="160" height="26" as="geometry" />
        </mxCell>
        <mxCell id="2fhtI5i99KWgJatTAvbM-52" value="Дополнительные &#xa;примечания" style="text;align=left;verticalAlign=top;spacingLeft=4;spacingRight=4;overflow=hidden;rotatable=0;points=[[0,0.5],[1,0.5]];portConstraint=eastwest;" vertex="1" parent="2fhtI5i99KWgJatTAvbM-1">
          <mxGeometry y="138" width="160" height="42" as="geometry" />
        </mxCell>
        <mxCell id="2fhtI5i99KWgJatTAvbM-5" value="Покупатель" style="swimlane;fontStyle=0;align=center;verticalAlign=top;childLayout=stackLayout;horizontal=1;startSize=26;horizontalStack=0;resizeParent=1;resizeLast=0;collapsible=1;marginBottom=0;rounded=0;shadow=0;strokeWidth=1;" vertex="1" parent="1">
          <mxGeometry x="350" y="500" width="160" height="220" as="geometry">
            <mxRectangle x="130" y="380" width="160" height="26" as="alternateBounds" />
          </mxGeometry>
        </mxCell>
        <mxCell id="2fhtI5i99KWgJatTAvbM-6" value="ID" style="text;align=left;verticalAlign=top;spacingLeft=4;spacingRight=4;overflow=hidden;rotatable=0;points=[[0,0.5],[1,0.5]];portConstraint=eastwest;" vertex="1" parent="2fhtI5i99KWgJatTAvbM-5">
          <mxGeometry y="26" width="160" height="26" as="geometry" />
        </mxCell>
        <mxCell id="2fhtI5i99KWgJatTAvbM-7" value="" style="line;html=1;strokeWidth=1;align=left;verticalAlign=middle;spacingTop=-1;spacingLeft=3;spacingRight=3;rotatable=0;labelPosition=right;points=[];portConstraint=eastwest;" vertex="1" parent="2fhtI5i99KWgJatTAvbM-5">
          <mxGeometry y="52" width="160" height="8" as="geometry" />
        </mxCell>
        <mxCell id="2fhtI5i99KWgJatTAvbM-8" value="Контактные данные" style="text;align=left;verticalAlign=top;spacingLeft=4;spacingRight=4;overflow=hidden;rotatable=0;points=[[0,0.5],[1,0.5]];portConstraint=eastwest;fontStyle=0" vertex="1" parent="2fhtI5i99KWgJatTAvbM-5">
          <mxGeometry y="60" width="160" height="160" as="geometry" />
        </mxCell>
        <mxCell id="2fhtI5i99KWgJatTAvbM-9" value="Продавец" style="swimlane;fontStyle=0;align=center;verticalAlign=top;childLayout=stackLayout;horizontal=1;startSize=26;horizontalStack=0;resizeParent=1;resizeLast=0;collapsible=1;marginBottom=0;rounded=0;shadow=0;strokeWidth=1;" vertex="1" parent="1">
          <mxGeometry x="550" y="500" width="160" height="220" as="geometry">
            <mxRectangle x="340" y="380" width="170" height="26" as="alternateBounds" />
          </mxGeometry>
        </mxCell>
        <mxCell id="2fhtI5i99KWgJatTAvbM-10" value="ID" style="text;align=left;verticalAlign=top;spacingLeft=4;spacingRight=4;overflow=hidden;rotatable=0;points=[[0,0.5],[1,0.5]];portConstraint=eastwest;" vertex="1" parent="2fhtI5i99KWgJatTAvbM-9">
          <mxGeometry y="26" width="160" height="26" as="geometry" />
        </mxCell>
        <mxCell id="2fhtI5i99KWgJatTAvbM-11" value="" style="line;html=1;strokeWidth=1;align=left;verticalAlign=middle;spacingTop=-1;spacingLeft=3;spacingRight=3;rotatable=0;labelPosition=right;points=[];portConstraint=eastwest;" vertex="1" parent="2fhtI5i99KWgJatTAvbM-9">
          <mxGeometry y="52" width="160" height="8" as="geometry" />
        </mxCell>
        <mxCell id="2fhtI5i99KWgJatTAvbM-12" value="Контактные данные" style="text;align=left;verticalAlign=top;spacingLeft=4;spacingRight=4;overflow=hidden;rotatable=0;points=[[0,0.5],[1,0.5]];portConstraint=eastwest;" vertex="1" parent="2fhtI5i99KWgJatTAvbM-9">
          <mxGeometry y="60" width="160" height="26" as="geometry" />
        </mxCell>
        <mxCell id="2fhtI5i99KWgJatTAvbM-13" value="Квалификация" style="text;align=left;verticalAlign=top;spacingLeft=4;spacingRight=4;overflow=hidden;rotatable=0;points=[[0,0.5],[1,0.5]];portConstraint=eastwest;" vertex="1" parent="2fhtI5i99KWgJatTAvbM-9">
          <mxGeometry y="86" width="160" height="134" as="geometry" />
        </mxCell>
        <mxCell id="2fhtI5i99KWgJatTAvbM-14" value="Автосалон" style="swimlane;fontStyle=0;align=center;verticalAlign=top;childLayout=stackLayout;horizontal=1;startSize=26;horizontalStack=0;resizeParent=1;resizeLast=0;collapsible=1;marginBottom=0;rounded=0;shadow=0;strokeWidth=1;" vertex="1" parent="1">
          <mxGeometry x="750" y="500" width="160" height="220" as="geometry">
            <mxRectangle x="550" y="140" width="160" height="26" as="alternateBounds" />
          </mxGeometry>
        </mxCell>
        <mxCell id="2fhtI5i99KWgJatTAvbM-15" value="ID" style="text;align=left;verticalAlign=top;spacingLeft=4;spacingRight=4;overflow=hidden;rotatable=0;points=[[0,0.5],[1,0.5]];portConstraint=eastwest;" vertex="1" parent="2fhtI5i99KWgJatTAvbM-14">
          <mxGeometry y="26" width="160" height="26" as="geometry" />
        </mxCell>
        <mxCell id="2fhtI5i99KWgJatTAvbM-16" value="" style="line;html=1;strokeWidth=1;align=left;verticalAlign=middle;spacingTop=-1;spacingLeft=3;spacingRight=3;rotatable=0;labelPosition=right;points=[];portConstraint=eastwest;" vertex="1" parent="2fhtI5i99KWgJatTAvbM-14">
          <mxGeometry y="52" width="160" height="8" as="geometry" />
        </mxCell>
        <mxCell id="2fhtI5i99KWgJatTAvbM-17" value="Название" style="text;align=left;verticalAlign=top;spacingLeft=4;spacingRight=4;overflow=hidden;rotatable=0;points=[[0,0.5],[1,0.5]];portConstraint=eastwest;rounded=0;shadow=0;html=0;" vertex="1" parent="2fhtI5i99KWgJatTAvbM-14">
          <mxGeometry y="60" width="160" height="26" as="geometry" />
        </mxCell>
        <mxCell id="2fhtI5i99KWgJatTAvbM-18" value="Адрес" style="text;align=left;verticalAlign=top;spacingLeft=4;spacingRight=4;overflow=hidden;rotatable=0;points=[[0,0.5],[1,0.5]];portConstraint=eastwest;rounded=0;shadow=0;html=0;" vertex="1" parent="2fhtI5i99KWgJatTAvbM-14">
          <mxGeometry y="86" width="160" height="26" as="geometry" />
        </mxCell>
        <mxCell id="2fhtI5i99KWgJatTAvbM-19" value="Город" style="text;align=left;verticalAlign=top;spacingLeft=4;spacingRight=4;overflow=hidden;rotatable=0;points=[[0,0.5],[1,0.5]];portConstraint=eastwest;rounded=0;shadow=0;html=0;" vertex="1" parent="2fhtI5i99KWgJatTAvbM-14">
          <mxGeometry y="112" width="160" height="26" as="geometry" />
        </mxCell>
        <mxCell id="2fhtI5i99KWgJatTAvbM-20" value="Рейтинг" style="text;align=left;verticalAlign=top;spacingLeft=4;spacingRight=4;overflow=hidden;rotatable=0;points=[[0,0.5],[1,0.5]];portConstraint=eastwest;" vertex="1" parent="2fhtI5i99KWgJatTAvbM-14">
          <mxGeometry y="138" width="160" height="26" as="geometry" />
        </mxCell>
        <mxCell id="2fhtI5i99KWgJatTAvbM-21" value="Телефон" style="text;align=left;verticalAlign=top;spacingLeft=4;spacingRight=4;overflow=hidden;rotatable=0;points=[[0,0.5],[1,0.5]];portConstraint=eastwest;rounded=0;shadow=0;html=0;" vertex="1" parent="2fhtI5i99KWgJatTAvbM-14">
          <mxGeometry y="164" width="160" height="26" as="geometry" />
        </mxCell>
        <mxCell id="2fhtI5i99KWgJatTAvbM-22" value="Контактные данные" style="swimlane;fontStyle=0;align=center;verticalAlign=top;childLayout=stackLayout;horizontal=1;startSize=26;horizontalStack=0;resizeParent=1;resizeLast=0;collapsible=1;marginBottom=0;rounded=0;shadow=0;strokeWidth=1;" vertex="1" parent="1">
          <mxGeometry x="550" y="200" width="160" height="220" as="geometry">
            <mxRectangle x="340" y="380" width="170" height="26" as="alternateBounds" />
          </mxGeometry>
        </mxCell>
        <mxCell id="2fhtI5i99KWgJatTAvbM-23" value="ID" style="text;align=left;verticalAlign=top;spacingLeft=4;spacingRight=4;overflow=hidden;rotatable=0;points=[[0,0.5],[1,0.5]];portConstraint=eastwest;" vertex="1" parent="2fhtI5i99KWgJatTAvbM-22">
          <mxGeometry y="26" width="160" height="26" as="geometry" />
        </mxCell>
        <mxCell id="2fhtI5i99KWgJatTAvbM-24" value="" style="line;html=1;strokeWidth=1;align=left;verticalAlign=middle;spacingTop=-1;spacingLeft=3;spacingRight=3;rotatable=0;labelPosition=right;points=[];portConstraint=eastwest;" vertex="1" parent="2fhtI5i99KWgJatTAvbM-22">
          <mxGeometry y="52" width="160" height="8" as="geometry" />
        </mxCell>
        <mxCell id="2fhtI5i99KWgJatTAvbM-25" value="Имя" style="text;align=left;verticalAlign=top;spacingLeft=4;spacingRight=4;overflow=hidden;rotatable=0;points=[[0,0.5],[1,0.5]];portConstraint=eastwest;" vertex="1" parent="2fhtI5i99KWgJatTAvbM-22">
          <mxGeometry y="60" width="160" height="26" as="geometry" />
        </mxCell>
        <mxCell id="2fhtI5i99KWgJatTAvbM-26" value="Фамилия" style="text;align=left;verticalAlign=top;spacingLeft=4;spacingRight=4;overflow=hidden;rotatable=0;points=[[0,0.5],[1,0.5]];portConstraint=eastwest;" vertex="1" parent="2fhtI5i99KWgJatTAvbM-22">
          <mxGeometry y="86" width="160" height="26" as="geometry" />
        </mxCell>
        <mxCell id="2fhtI5i99KWgJatTAvbM-27" value="email" style="text;align=left;verticalAlign=top;spacingLeft=4;spacingRight=4;overflow=hidden;rotatable=0;points=[[0,0.5],[1,0.5]];portConstraint=eastwest;" vertex="1" parent="2fhtI5i99KWgJatTAvbM-22">
          <mxGeometry y="112" width="160" height="26" as="geometry" />
        </mxCell>
        <mxCell id="2fhtI5i99KWgJatTAvbM-28" value="Телефон" style="text;align=left;verticalAlign=top;spacingLeft=4;spacingRight=4;overflow=hidden;rotatable=0;points=[[0,0.5],[1,0.5]];portConstraint=eastwest;" vertex="1" parent="2fhtI5i99KWgJatTAvbM-22">
          <mxGeometry y="138" width="160" height="26" as="geometry" />
        </mxCell>
        <mxCell id="2fhtI5i99KWgJatTAvbM-29" value="Автомобиль" style="swimlane;fontStyle=0;align=center;verticalAlign=top;childLayout=stackLayout;horizontal=1;startSize=26;horizontalStack=0;resizeParent=1;resizeLast=0;collapsible=1;marginBottom=0;rounded=0;shadow=0;strokeWidth=1;" vertex="1" parent="1">
          <mxGeometry x="750" y="800" width="160" height="216" as="geometry">
            <mxRectangle x="550" y="140" width="160" height="26" as="alternateBounds" />
          </mxGeometry>
        </mxCell>
        <mxCell id="2fhtI5i99KWgJatTAvbM-30" value="ID" style="text;align=left;verticalAlign=top;spacingLeft=4;spacingRight=4;overflow=hidden;rotatable=0;points=[[0,0.5],[1,0.5]];portConstraint=eastwest;" vertex="1" parent="2fhtI5i99KWgJatTAvbM-29">
          <mxGeometry y="26" width="160" height="26" as="geometry" />
        </mxCell>
        <mxCell id="2fhtI5i99KWgJatTAvbM-31" value="" style="line;html=1;strokeWidth=1;align=left;verticalAlign=middle;spacingTop=-1;spacingLeft=3;spacingRight=3;rotatable=0;labelPosition=right;points=[];portConstraint=eastwest;" vertex="1" parent="2fhtI5i99KWgJatTAvbM-29">
          <mxGeometry y="52" width="160" height="8" as="geometry" />
        </mxCell>
        <mxCell id="2fhtI5i99KWgJatTAvbM-32" value="Марка" style="text;align=left;verticalAlign=top;spacingLeft=4;spacingRight=4;overflow=hidden;rotatable=0;points=[[0,0.5],[1,0.5]];portConstraint=eastwest;rounded=0;shadow=0;html=0;" vertex="1" parent="2fhtI5i99KWgJatTAvbM-29">
          <mxGeometry y="60" width="160" height="26" as="geometry" />
        </mxCell>
        <mxCell id="2fhtI5i99KWgJatTAvbM-33" value="Модель" style="text;align=left;verticalAlign=top;spacingLeft=4;spacingRight=4;overflow=hidden;rotatable=0;points=[[0,0.5],[1,0.5]];portConstraint=eastwest;rounded=0;shadow=0;html=0;" vertex="1" parent="2fhtI5i99KWgJatTAvbM-29">
          <mxGeometry y="86" width="160" height="26" as="geometry" />
        </mxCell>
        <mxCell id="2fhtI5i99KWgJatTAvbM-34" value="Год выпуска" style="text;align=left;verticalAlign=top;spacingLeft=4;spacingRight=4;overflow=hidden;rotatable=0;points=[[0,0.5],[1,0.5]];portConstraint=eastwest;rounded=0;shadow=0;html=0;" vertex="1" parent="2fhtI5i99KWgJatTAvbM-29">
          <mxGeometry y="112" width="160" height="26" as="geometry" />
        </mxCell>
        <mxCell id="2fhtI5i99KWgJatTAvbM-35" value="Цвет" style="text;align=left;verticalAlign=top;spacingLeft=4;spacingRight=4;overflow=hidden;rotatable=0;points=[[0,0.5],[1,0.5]];portConstraint=eastwest;" vertex="1" parent="2fhtI5i99KWgJatTAvbM-29">
          <mxGeometry y="138" width="160" height="26" as="geometry" />
        </mxCell>
        <mxCell id="2fhtI5i99KWgJatTAvbM-36" value="VIN" style="text;align=left;verticalAlign=top;spacingLeft=4;spacingRight=4;overflow=hidden;rotatable=0;points=[[0,0.5],[1,0.5]];portConstraint=eastwest;rounded=0;shadow=0;html=0;" vertex="1" parent="2fhtI5i99KWgJatTAvbM-29">
          <mxGeometry y="164" width="160" height="26" as="geometry" />
        </mxCell>
        <mxCell id="2fhtI5i99KWgJatTAvbM-37" value="Цена" style="text;align=left;verticalAlign=top;spacingLeft=4;spacingRight=4;overflow=hidden;rotatable=0;points=[[0,0.5],[1,0.5]];portConstraint=eastwest;rounded=0;shadow=0;html=0;" vertex="1" parent="2fhtI5i99KWgJatTAvbM-29">
          <mxGeometry y="190" width="160" height="26" as="geometry" />
        </mxCell>
        <mxCell id="2fhtI5i99KWgJatTAvbM-38" value="ДКП" style="swimlane;fontStyle=0;align=center;verticalAlign=top;childLayout=stackLayout;horizontal=1;startSize=26;horizontalStack=0;resizeParent=1;resizeLast=0;collapsible=1;marginBottom=0;rounded=0;shadow=0;strokeWidth=1;" vertex="1" parent="1">
          <mxGeometry x="550" y="800" width="160" height="112" as="geometry">
            <mxRectangle x="340" y="380" width="170" height="26" as="alternateBounds" />
          </mxGeometry>
        </mxCell>
        <mxCell id="2fhtI5i99KWgJatTAvbM-39" value="ID" style="text;align=left;verticalAlign=top;spacingLeft=4;spacingRight=4;overflow=hidden;rotatable=0;points=[[0,0.5],[1,0.5]];portConstraint=eastwest;" vertex="1" parent="2fhtI5i99KWgJatTAvbM-38">
          <mxGeometry y="26" width="160" height="26" as="geometry" />
        </mxCell>
        <mxCell id="2fhtI5i99KWgJatTAvbM-40" value="" style="line;html=1;strokeWidth=1;align=left;verticalAlign=middle;spacingTop=-1;spacingLeft=3;spacingRight=3;rotatable=0;labelPosition=right;points=[];portConstraint=eastwest;" vertex="1" parent="2fhtI5i99KWgJatTAvbM-38">
          <mxGeometry y="52" width="160" height="8" as="geometry" />
        </mxCell>
        <mxCell id="2fhtI5i99KWgJatTAvbM-41" value="Дата продажи" style="text;align=left;verticalAlign=top;spacingLeft=4;spacingRight=4;overflow=hidden;rotatable=0;points=[[0,0.5],[1,0.5]];portConstraint=eastwest;" vertex="1" parent="2fhtI5i99KWgJatTAvbM-38">
          <mxGeometry y="60" width="160" height="26" as="geometry" />
        </mxCell>
        <mxCell id="2fhtI5i99KWgJatTAvbM-42" value="Сумма продажи" style="text;align=left;verticalAlign=top;spacingLeft=4;spacingRight=4;overflow=hidden;rotatable=0;points=[[0,0.5],[1,0.5]];portConstraint=eastwest;" vertex="1" parent="2fhtI5i99KWgJatTAvbM-38">
          <mxGeometry y="86" width="160" height="26" as="geometry" />
        </mxCell>
        <mxCell id="2fhtI5i99KWgJatTAvbM-43" value="" style="endArrow=oval;html=1;rounded=0;exitX=0.5;exitY=1;exitDx=0;exitDy=0;entryX=0.5;entryY=0;entryDx=0;entryDy=0;endFill=1;" edge="1" parent="1" source="2fhtI5i99KWgJatTAvbM-22" target="2fhtI5i99KWgJatTAvbM-5">
          <mxGeometry width="50" height="50" relative="1" as="geometry">
            <mxPoint x="690" y="540" as="sourcePoint" />
            <mxPoint x="740" y="490" as="targetPoint" />
          </mxGeometry>
        </mxCell>
        <mxCell id="2fhtI5i99KWgJatTAvbM-44" value="" style="endArrow=oval;html=1;rounded=0;entryX=0.5;entryY=0;entryDx=0;entryDy=0;endFill=1;exitX=0.5;exitY=1;exitDx=0;exitDy=0;" edge="1" parent="1" source="2fhtI5i99KWgJatTAvbM-22" target="2fhtI5i99KWgJatTAvbM-9">
          <mxGeometry width="50" height="50" relative="1" as="geometry">
            <mxPoint x="600" y="460" as="sourcePoint" />
            <mxPoint x="440" y="510" as="targetPoint" />
          </mxGeometry>
        </mxCell>
        <mxCell id="2fhtI5i99KWgJatTAvbM-45" value="" style="endArrow=oval;html=1;rounded=0;entryX=0.5;entryY=0;entryDx=0;entryDy=0;endFill=1;exitX=0.5;exitY=1;exitDx=0;exitDy=0;" edge="1" parent="1" source="2fhtI5i99KWgJatTAvbM-1" target="2fhtI5i99KWgJatTAvbM-9">
          <mxGeometry width="50" height="50" relative="1" as="geometry">
            <mxPoint x="640" y="430" as="sourcePoint" />
            <mxPoint x="640" y="510" as="targetPoint" />
          </mxGeometry>
        </mxCell>
        <mxCell id="2fhtI5i99KWgJatTAvbM-46" value="" style="endArrow=oval;html=1;rounded=0;entryX=0.5;entryY=0;entryDx=0;entryDy=0;endFill=1;exitX=0.498;exitY=1.009;exitDx=0;exitDy=0;exitPerimeter=0;" edge="1" parent="1" source="2fhtI5i99KWgJatTAvbM-13" target="2fhtI5i99KWgJatTAvbM-38">
          <mxGeometry width="50" height="50" relative="1" as="geometry">
            <mxPoint x="690" y="760" as="sourcePoint" />
            <mxPoint x="640" y="510" as="targetPoint" />
          </mxGeometry>
        </mxCell>
        <mxCell id="2fhtI5i99KWgJatTAvbM-47" value="" style="endArrow=oval;html=1;rounded=0;endFill=1;exitX=0.477;exitY=1.017;exitDx=0;exitDy=0;exitPerimeter=0;" edge="1" parent="1" source="2fhtI5i99KWgJatTAvbM-8">
          <mxGeometry width="50" height="50" relative="1" as="geometry">
            <mxPoint x="640" y="731" as="sourcePoint" />
            <mxPoint x="630" y="800" as="targetPoint" />
          </mxGeometry>
        </mxCell>
        <mxCell id="2fhtI5i99KWgJatTAvbM-48" value="" style="endArrow=oval;html=1;rounded=0;entryX=0;entryY=0.5;entryDx=0;entryDy=0;endFill=1;exitX=1;exitY=0.5;exitDx=0;exitDy=0;" edge="1" parent="1" source="2fhtI5i99KWgJatTAvbM-41" target="2fhtI5i99KWgJatTAvbM-32">
          <mxGeometry width="50" height="50" relative="1" as="geometry">
            <mxPoint x="640" y="731" as="sourcePoint" />
            <mxPoint x="640" y="810" as="targetPoint" />
          </mxGeometry>
        </mxCell>
        <mxCell id="2fhtI5i99KWgJatTAvbM-49" value="" style="endArrow=oval;html=1;rounded=0;entryX=0.5;entryY=0;entryDx=0;entryDy=0;endFill=1;exitX=0.5;exitY=1;exitDx=0;exitDy=0;" edge="1" parent="1" source="2fhtI5i99KWgJatTAvbM-14" target="2fhtI5i99KWgJatTAvbM-29">
          <mxGeometry width="50" height="50" relative="1" as="geometry">
            <mxPoint x="720" y="883" as="sourcePoint" />
            <mxPoint x="760" y="883" as="targetPoint" />
          </mxGeometry>
        </mxCell>
      </root>
    </mxGraphModel>
  </diagram>
</mxfile>
